<?xml version="1.0" standalone="no"?>
<!DOCTYPE svg PUBLIC "-//W3C//DTD SVG 20010904//EN"
 "http://www.w3.org/TR/2001/REC-SVG-20010904/DTD/svg10.dtd">
<svg version="1.0" xmlns="http://www.w3.org/2000/svg"
 width="407.000000pt" height="407.000000pt" viewBox="0 0 407.000000 407.000000"
 preserveAspectRatio="xMidYMid meet">
<metadata>
Created by potrace 1.16, written by Peter Selinger 2001-2019
</metadata>
<g transform="translate(0.000000,407.000000) scale(0.100000,-0.100000)"
fill="#000000" stroke="none">
<path d="M1870 3989 c0 -4 -11 -6 -25 -6 -13 0 -39 -7 -57 -16 -18 -9 -54 -21
-80 -27 -27 -7 -48 -16 -48 -21 0 -5 -8 -9 -17 -9 -10 0 -29 -7 -43 -15 -14
-7 -40 -21 -59 -29 -61 -29 -189 -144 -261 -236 -14 -17 -35 -44 -47 -58 -13
-15 -23 -31 -23 -35 0 -5 -9 -20 -20 -34 -11 -14 -20 -32 -20 -40 0 -8 -9 -28
-21 -45 -12 -16 -18 -32 -15 -35 3 -3 1 -12 -6 -20 -6 -7 -8 -16 -5 -19 3 -3
-2 -22 -10 -42 -9 -21 -18 -86 -22 -152 -7 -133 -5 -163 12 -153 8 4 7 1 -1
-9 -16 -20 -8 -75 19 -135 10 -24 19 -50 19 -58 0 -8 5 -15 10 -15 6 0 10 -5
10 -11 0 -5 -4 -7 -10 -4 -15 9 -12 -7 5 -29 21 -28 19 -37 -7 -27 -57 21 -88
29 -92 23 -2 -4 -11 -31 -21 -61 -44 -134 31 -425 125 -487 45 -30 83 -38 108
-25 41 22 60 -41 82 -274 9 -99 16 -181 16 -182 -1 -1 -17 -5 -36 -8 -45 -7
-86 -52 -100 -107 -17 -72 -59 -145 -113 -195 -29 -26 -50 -52 -49 -58 2 -5 0
-7 -4 -3 -4 4 -12 4 -18 -1 -6 -6 -43 -18 -81 -29 -99 -28 -120 -37 -310 -147
-202 -117 -388 -213 -542 -280 l-113 -49 0 -413 0 -413 397 0 c258 0 393 4
383 10 -11 7 -11 10 -2 10 7 0 11 4 7 9 -3 6 5 20 17 32 13 12 17 19 10 15
-17 -10 -15 -1 4 18 23 24 33 19 27 -11 -2 -16 -5 -38 -6 -51 -2 -20 -3 -20
-14 -6 -6 9 -18 14 -25 11 -9 -4 -9 -6 -1 -6 7 -1 10 -7 7 -14 -4 -11 13 -14
79 -15 65 0 84 2 84 13 0 8 -5 12 -11 9 -6 -3 -2 2 9 11 12 9 16 19 10 23 -12
8 -19 36 -7 28 4 -2 14 4 21 16 10 16 10 19 -1 12 -7 -4 -10 -4 -6 1 4 4 3 14
-3 21 -7 8 -7 14 1 19 6 4 9 1 8 -6 -2 -6 4 -14 12 -17 8 -2 12 -1 8 3 -4 5
-2 15 5 23 10 13 9 14 -3 7 -13 -8 -13 -5 1 15 15 23 49 44 35 21 -4 -6 -2
-11 5 -11 6 0 9 8 6 20 -3 11 -1 18 4 14 5 -3 9 -1 9 5 0 6 24 2 58 -9 31 -11
104 -34 162 -51 58 -17 150 -50 205 -74 55 -24 110 -47 123 -50 47 -13 7 -25
-86 -26 -53 -1 -126 -5 -162 -9 -36 -4 537 -8 1274 -8 l1338 -2 -7 27 c-8 36
-42 103 -63 128 -10 11 -44 43 -77 71 -33 28 -76 66 -95 84 -49 46 -185 159
-235 195 -70 50 -229 171 -245 186 -16 15 -272 223 -378 306 -107 85 -112 91
-112 148 -1 85 -10 128 -40 191 -33 68 -67 106 -74 83 -2 -8 -9 -57 -16 -109
-6 -52 -18 -108 -26 -126 -22 -46 -81 -107 -95 -98 -8 4 -9 3 -5 -4 4 -7 1
-12 -9 -12 -9 0 -13 -5 -10 -10 3 -6 -4 -10 -17 -10 -14 0 -38 -16 -61 -40
-21 -23 -42 -38 -47 -35 -16 10 -11 26 6 23 10 -2 19 2 21 9 3 7 -4 9 -19 6
-13 -3 -20 -2 -16 2 4 5 2 15 -5 23 -7 10 -8 13 -1 9 7 -4 16 -1 22 6 16 19 8
51 -16 62 -12 5 -22 17 -21 25 0 10 2 11 6 3 2 -7 9 -13 14 -13 6 0 6 7 0 19
-8 14 -7 22 4 31 8 7 12 17 8 23 -3 6 -1 7 5 3 15 -9 15 -12 -4 -30 -14 -15
-14 -16 5 -16 14 0 19 5 15 15 -4 10 0 15 12 16 15 0 16 2 4 6 -22 9 -40 36
-35 51 6 17 -19 55 -29 45 -4 -4 -3 4 3 19 5 14 7 29 4 32 -4 3 4 6 16 6 12 0
20 4 17 8 -3 5 16 7 42 6 29 -2 56 3 70 12 19 13 26 13 40 2 13 -9 12 -7 -2
10 -11 12 -14 22 -8 22 6 0 14 -5 17 -10 4 -6 11 -8 16 -4 5 3 7 10 4 15 -4 5
1 9 10 9 10 0 13 -5 9 -12 -4 -7 -3 -8 5 -4 6 4 9 12 6 17 -4 5 -1 9 5 9 6 0
9 4 6 9 -4 5 4 7 16 4 13 -3 20 -2 15 2 -4 5 0 17 10 27 9 10 17 37 18 61 3
49 14 77 55 132 82 109 181 268 176 281 -3 9 -1 12 4 9 6 -3 10 -4 10 -2 0 3
7 21 16 42 8 20 11 34 6 31 -6 -3 -13 1 -16 9 -4 11 0 15 11 13 9 -2 18 4 20
12 4 13 3 13 -6 0 -8 -12 -11 -12 -17 3 -4 10 -2 23 4 29 7 7 7 19 2 33 -8 20
-6 22 13 18 17 -5 20 -3 10 7 -6 7 -9 19 -6 27 5 12 7 12 14 1 6 -9 9 -6 9 10
0 19 -3 21 -19 12 -14 -7 -22 -7 -26 0 -4 6 -3 9 2 8 9 -3 13 5 13 30 0 14 -2
15 -10 2 -9 -13 -10 -13 -10 0 0 13 -2 13 -9 0 -6 -8 -7 -18 -5 -22 3 -4 -7
-7 -21 -6 -20 2 -28 9 -32 30 -3 15 -9 26 -13 23 -4 -3 -10 6 -12 20 -3 14 -2
25 1 25 4 0 7 9 7 20 0 11 -5 20 -10 20 -5 0 -1 7 10 15 10 8 15 15 9 15 -5 0
-4 4 3 9 7 4 14 18 15 29 1 12 5 22 10 22 4 0 6 4 2 9 -3 5 0 13 6 16 7 5 4
14 -10 29 -11 12 -27 37 -35 57 -14 33 -14 38 3 55 9 10 19 24 22 29 2 6 8 9
12 7 5 -1 7 10 6 25 -4 36 21 183 31 183 15 0 21 -35 21 -120 -1 -79 12 -201
24 -240 3 -9 6 -47 6 -84 l1 -68 20 43 c11 24 21 55 23 69 1 14 5 32 8 40 3 8
10 66 17 128 14 135 4 201 -35 222 -13 7 -32 10 -42 6 -12 -4 -11 0 6 12 28
22 21 43 -11 34 -14 -3 -19 -2 -14 6 4 7 13 12 20 12 25 0 46 36 46 79 0 35
-4 44 -20 48 -21 6 -37 44 -26 62 4 5 2 12 -4 16 -5 3 -10 14 -10 23 0 15 2
15 10 2 17 -27 3 142 -15 185 -10 22 -16 40 -15 40 1 0 -1 12 -5 28 -4 15 -10
27 -14 27 -4 0 -15 20 -25 45 -11 25 -22 45 -25 45 -4 0 -14 13 -24 29 -27 46
-123 148 -178 191 -18 14 -46 37 -61 52 -15 15 -28 24 -28 20 0 -4 -4 -2 -8 4
-27 39 -184 125 -264 145 -29 7 -58 16 -64 21 -27 20 -354 35 -354 17z m70
-204 c0 -8 5 -15 11 -15 6 0 9 -7 5 -15 -3 -8 -1 -15 3 -15 5 0 11 6 13 12 3
9 9 8 22 -5 21 -21 36 -22 36 -3 0 26 26 39 52 25 13 -7 34 -13 48 -13 15 -1
25 -7 25 -16 0 -9 8 -14 18 -12 10 2 25 -2 33 -9 23 -19 42 5 20 26 -24 24
-20 26 14 7 16 -9 30 -22 30 -28 0 -18 71 -28 81 -12 5 8 9 8 9 2 0 -6 21 -19
48 -28 42 -16 77 -30 107 -45 6 -3 4 3 -4 12 -12 15 -12 17 2 12 8 -4 17 -15
20 -25 3 -10 18 -21 37 -25 17 -4 29 -9 26 -12 -2 -3 7 -18 21 -34 15 -16 29
-27 31 -24 3 3 -3 12 -14 21 -18 14 -18 15 6 8 14 -4 27 -11 28 -15 2 -5 9 -6
14 -3 7 4 8 2 4 -5 -4 -6 -12 -9 -17 -6 -22 14 -6 -14 17 -30 14 -9 23 -19 20
-22 -3 -3 -11 -1 -19 5 -9 8 -17 8 -27 0 -12 -8 -12 -9 3 -4 11 3 17 0 17 -10
0 -9 -5 -12 -12 -8 -7 4 -6 -1 3 -10 9 -10 25 -19 35 -20 11 -2 18 -10 16 -19
-3 -18 11 -29 42 -32 11 -1 23 -3 26 -4 3 0 6 -12 6 -26 2 -22 0 -24 -15 -13
-9 7 -7 1 5 -12 25 -30 37 -60 24 -60 -6 0 -10 -7 -10 -16 0 -14 -1 -14 -16 0
-8 9 -19 16 -24 16 -4 0 -6 10 -3 23 3 16 2 18 -5 8 -10 -14 -32 -7 -32 10 0
15 -26 39 -34 32 -3 -4 -6 0 -6 7 0 7 -3 10 -6 7 -4 -4 -15 3 -25 14 -9 11
-26 21 -37 22 -12 0 -18 5 -16 9 5 7 -10 12 -28 9 -5 0 -8 4 -8 9 0 6 -13 8
-32 4 -18 -4 -51 -7 -73 -7 -27 0 -31 -1 -12 -4 45 -7 30 -20 -18 -16 -26 3
-45 1 -45 -5 0 -6 10 -8 23 -5 18 4 19 3 6 -6 -11 -7 -27 -7 -49 -1 -18 5 -30
7 -26 3 3 -4 -1 -15 -10 -25 -14 -15 -20 -16 -32 -5 -13 9 -14 9 -8 0 4 -8 2
-13 -4 -13 -7 0 -10 -6 -7 -14 3 -7 0 -19 -6 -25 -8 -8 -8 -11 0 -11 6 0 16 6
22 14 9 11 9 15 -1 19 -9 4 -9 6 -1 6 22 2 24 -18 4 -38 -11 -11 -16 -23 -11
-26 6 -4 10 -2 10 3 0 6 10 5 25 -1 14 -7 23 -18 20 -24 -6 -18 21 -16 39 3
15 14 16 14 16 -2 0 -13 3 -14 14 -5 11 9 16 9 22 0 4 -7 3 -9 -4 -5 -6 3 -14
2 -17 -4 -4 -6 -15 -8 -26 -5 -10 4 -19 2 -19 -3 0 -4 29 -8 64 -8 35 1 62 4
60 8 -11 17 31 -2 48 -21 10 -13 18 -18 18 -12 0 6 7 8 15 5 8 -4 12 -11 9
-18 -3 -6 2 -2 10 8 14 17 16 18 16 3 0 -9 5 -17 10 -17 6 0 10 -5 10 -11 0
-5 -5 -7 -12 -3 -7 4 -8 3 -4 -5 6 -9 12 -9 24 1 10 7 14 8 10 4 -4 -5 -3 -15
3 -23 6 -7 8 -13 5 -13 -4 0 -2 -8 3 -18 8 -16 4 -17 -42 -17 -29 0 -58 4 -66
9 -10 7 -12 6 -6 -4 6 -10 0 -12 -28 -7 -22 3 -37 2 -37 -4 0 -6 -5 -7 -10 -4
-6 4 -27 1 -47 -6 -26 -8 -38 -9 -41 -1 -2 6 -13 7 -32 2 -18 -5 -32 -4 -40 3
-10 9 -11 9 -6 0 5 -9 -1 -13 -18 -13 -13 0 -26 -6 -29 -12 -3 -10 -7 -10 -18
-2 -19 16 -101 23 -95 8 2 -6 -2 -11 -10 -11 -7 0 -11 4 -8 9 3 4 -3 9 -13 9
-24 2 -25 2 -48 -6 -16 -6 -17 -5 -5 4 8 6 10 11 4 11 -6 0 -17 -6 -23 -14 -7
-8 -29 -15 -49 -15 -20 0 -62 -7 -92 -16 -30 -8 -104 -22 -165 -31 -60 -8
-145 -24 -189 -35 -43 -11 -80 -18 -83 -16 -2 3 17 10 42 16 25 6 45 15 45 19
0 4 -32 8 -71 10 -55 2 -69 -1 -63 -10 4 -7 4 -10 0 -6 -4 3 -8 10 -8 15 -1 4
-8 14 -17 20 -13 10 -14 14 -3 21 8 5 12 18 11 28 -2 11 -1 24 3 29 4 6 3 17
-3 25 -6 10 -9 11 -9 3 0 -7 -4 -13 -10 -13 -6 0 -6 9 0 26 7 16 7 23 0 19 -6
-3 -10 3 -10 14 0 21 -29 56 -38 46 -4 -3 0 -10 8 -15 8 -5 11 -12 7 -17 -9
-8 -27 15 -27 34 0 6 9 14 19 18 27 8 38 39 11 32 -13 -3 -20 0 -20 10 0 9 6
13 14 10 15 -6 36 11 36 28 0 5 -5 3 -10 -5 -7 -11 -10 -11 -10 -2 0 7 -4 11
-9 8 -5 -3 -11 0 -14 8 -4 11 1 13 17 10 25 -4 54 20 37 30 -17 11 7 58 45 89
39 33 44 48 12 39 -21 -5 -21 -5 -3 19 11 13 38 41 61 62 38 34 42 36 55 20
10 -13 10 -15 0 -7 -10 9 -21 4 -47 -22 -39 -40 -47 -59 -9 -24 23 21 30 20
26 -3 -1 -5 3 -6 9 -2 8 5 8 11 0 20 -11 14 2 31 18 21 13 -8 44 22 36 36 -6
10 -4 10 9 -1 15 -12 17 -12 11 3 -4 11 -1 16 13 16 27 0 76 47 67 63 -4 6 -4
9 1 5 4 -4 14 0 22 8 9 8 18 12 21 9 4 -3 0 -10 -7 -14 -8 -6 -9 -11 -3 -15 6
-3 14 3 17 14 5 16 10 19 20 10 10 -8 19 -8 35 0 11 6 24 9 29 6 5 -3 14 1 21
9 7 8 19 15 26 15 8 0 20 11 26 25 7 15 17 24 25 21 8 -3 11 -1 8 4 -3 6 -1
10 4 10 6 0 11 -7 11 -15z m847 -861 c13 -4 21 -10 18 -14 -3 -5 0 -12 6 -16
7 -4 10 -3 7 2 -6 10 11 27 30 32 20 4 25 -23 18 -91 -9 -78 -18 -96 -40 -78
-11 9 -16 10 -16 2 0 -14 -37 -15 -45 -1 -4 6 1 7 12 3 29 -11 -38 63 -69 77
-33 15 -33 14 -12 45 16 25 52 37 38 13 -5 -9 -3 -9 9 1 9 7 14 17 11 22 -6
10 2 11 33 3z m-538 -222 c25 -20 48 -41 52 -47 65 -85 157 -155 204 -155 9 0
13 -5 10 -10 -4 -6 -11 -8 -16 -5 -16 11 -10 -16 11 -42 19 -25 28 -82 13 -84
-5 0 -17 -2 -28 -4 -11 -2 -29 4 -40 14 -11 11 -33 18 -52 17 -17 0 -31 3 -30
8 2 9 -11 12 -75 23 -26 4 -49 -1 -82 -17 -25 -12 -50 -19 -56 -15 -6 4 -19 3
-28 -1 -22 -9 -29 -11 -48 -13 -8 0 -12 -6 -9 -11 4 -6 3 -10 -2 -8 -4 1 -27
-4 -49 -10 -82 -24 -135 10 -100 63 9 14 12 25 6 25 -19 0 -285 -139 -312
-164 -29 -26 -60 -80 -52 -89 10 -10 -55 1 -74 12 -11 7 -13 10 -3 11 22 0 -6
28 -32 32 -12 2 -21 6 -20 10 2 5 -7 20 -20 34 -12 14 -22 29 -23 32 0 4 -4
15 -8 25 -5 9 -6 23 -3 31 3 7 2 17 -3 22 -7 8 -13 51 -24 177 -1 15 1 27 5
27 3 0 5 16 3 35 -1 23 1 33 8 29 7 -5 9 0 6 13 -5 20 -1 21 46 14 4 0 6 -10
3 -21 -3 -10 -2 -19 2 -18 19 4 100 -43 106 -62 12 -37 68 -92 118 -116 53
-24 51 -28 -22 -50 -37 -11 -49 -18 -45 -29 8 -21 38 -19 146 10 201 54 275
96 363 211 37 47 69 94 73 103 5 15 21 31 32 31 3 0 25 -17 49 -38z m-265
-117 c19 -15 19 -15 -3 -15 -12 0 -20 -4 -17 -9 3 -5 -1 -12 -10 -15 -10 -4
-13 -2 -8 7 6 8 3 8 -9 -1 -9 -8 -25 -11 -38 -7 -14 5 -19 4 -15 -4 4 -6 0
-11 -9 -11 -9 0 -13 -4 -10 -10 3 -5 -3 -10 -14 -10 -12 0 -21 -4 -21 -9 0 -5
-9 -13 -21 -16 -11 -4 -18 -9 -16 -12 13 -12 126 24 172 55 l50 33 -36 -34
c-52 -48 -106 -67 -192 -67 -60 0 -83 5 -127 28 -30 15 -56 33 -58 40 -5 15
35 16 40 0 6 -18 149 8 220 41 72 33 95 36 122 16z m-858 -51 c-4 -20 -1 -54
6 -75 9 -31 18 -41 41 -47 17 -4 33 -14 37 -22 4 -8 15 -30 24 -47 9 -18 15
-33 12 -33 -3 0 2 -16 10 -35 19 -46 18 -52 -11 -71 -24 -16 -28 -16 -66 1
-21 10 -48 32 -58 49 -30 51 -63 143 -58 163 4 17 5 17 12 -2 5 -11 21 -33 36
-49 l28 -30 7 28 c5 21 1 32 -14 46 -11 11 -23 28 -27 39 -3 11 -12 18 -19 15
-21 -8 -10 75 11 92 28 21 35 16 29 -22z m807 -246 c2 -7 -3 -22 -12 -33 -9
-11 -12 -17 -7 -13 14 12 46 -11 40 -27 -4 -9 -1 -15 7 -15 10 0 10 -3 1 -12
-9 -9 1 -17 45 -35 31 -13 62 -23 70 -23 33 0 8 -18 -46 -33 -33 -9 -65 -22
-73 -29 -7 -7 -20 -12 -28 -12 -8 1 -28 2 -44 3 -20 1 -27 5 -23 16 4 8 2 17
-3 20 -19 12 -2 97 28 134 16 20 28 44 26 54 -3 19 12 23 19 5z m587 -292 c0
-21 -35 -40 -102 -53 -19 -3 -28 -12 -28 -24 0 -10 -4 -20 -10 -24 -5 -3 -7
-12 -3 -20 3 -10 -1 -15 -12 -15 -12 0 -15 5 -11 17 6 14 3 14 -15 -3 -11 -10
-35 -19 -53 -20 -44 0 -128 -15 -148 -26 -10 -5 -18 -15 -18 -22 0 -8 -13 -16
-30 -18 -16 -3 -30 -1 -30 4 0 5 -4 6 -10 3 -5 -3 -10 -2 -10 3 0 14 -99 64
-112 56 -7 -4 -8 -3 -4 4 4 7 1 12 -8 12 -32 0 -16 28 17 29 17 1 48 3 67 5
19 3 47 5 62 5 17 1 26 6 24 14 -3 6 -7 24 -10 40 -6 25 -4 27 28 27 23 0 39
-6 45 -17 10 -17 10 -17 11 0 0 17 6 18 53 12 28 -4 55 -12 58 -17 4 -7 10 -5
15 3 5 8 25 20 44 27 29 10 37 10 46 -2 9 -13 12 -13 25 2 10 11 31 17 67 19
47 1 52 -1 52 -21z m98 -73 c-3 -21 -12 -52 -20 -68 -23 -43 -90 -113 -96 -97
-2 6 -8 10 -13 6 -5 -3 -9 2 -9 10 0 9 -4 16 -10 16 -6 0 -6 9 -2 23 10 26 9
38 -1 54 -4 6 -2 15 4 19 8 5 9 3 4 -6 -6 -9 -4 -11 4 -6 7 5 10 14 7 21 -3 8
6 15 24 19 16 3 35 14 41 24 6 10 25 19 41 20 29 2 30 1 26 -35z m-1513 -918
c23 -4 37 -18 62 -59 36 -58 58 -110 44 -102 -5 3 -30 3 -56 -1 -49 -6 -44
-23 7 -23 15 0 39 -5 55 -11 27 -11 25 -12 -42 -29 -84 -22 -115 -24 -116 -7
0 9 -2 9 -6 -1 -2 -6 -9 -9 -14 -6 -6 4 -6 10 0 18 6 7 6 17 1 26 -9 13 -10
13 -11 0 -1 -8 -1 -18 0 -22 0 -5 -4 -8 -10 -8 -5 0 -8 -4 -5 -8 2 -4 -3 -8
-12 -9 -9 0 -38 -4 -64 -8 -41 -7 -48 -5 -48 9 0 11 9 16 28 16 l27 1 -24 13
c-15 8 -20 16 -12 20 6 4 11 2 11 -4 0 -6 5 -8 11 -5 5 4 8 12 6 18 -2 7 4 23
14 36 11 13 19 31 19 40 0 10 6 26 14 36 8 11 11 26 8 34 -4 10 -1 12 8 6 8
-5 11 -3 8 6 -2 7 0 19 6 25 10 11 21 11 91 -1z m-666 -406 c65 1 112 -14 104
-35 -3 -8 -8 -12 -12 -10 -3 2 -19 -3 -36 -10 -16 -7 -25 -13 -18 -14 7 0 3
-10 -10 -23 -12 -13 -25 -22 -29 -20 -11 6 -49 -22 -43 -30 3 -4 3 -5 -1 -3
-3 2 -21 0 -40 -4 -19 -4 -36 -4 -39 1 -3 4 -28 6 -56 3 -50 -6 -50 -6 -46 22
2 15 10 30 18 32 8 2 10 0 4 -5 -5 -4 -11 -14 -13 -22 -5 -22 26 6 33 30 4 10
15 19 26 19 10 0 19 7 19 15 0 8 0 17 0 20 1 2 11 15 23 29 17 20 25 22 41 14
11 -6 45 -10 75 -9z m216 -149 c71 -17 126 -18 194 -4 62 13 67 13 85 -6 20
-20 20 -20 -1 -20 -17 0 -21 -5 -19 -24 2 -18 -1 -23 -12 -18 -10 3 -13 1 -8
-6 5 -8 2 -10 -8 -6 -20 8 -21 24 -1 24 8 0 15 5 15 10 0 18 -32 11 -65 -14
-43 -33 -137 -59 -188 -53 -74 10 -134 41 -117 62 5 6 6 15 2 20 -4 4 4 2 18
-5 23 -12 24 -12 12 3 -12 14 -11 16 7 12 17 -3 19 -1 12 13 -12 22 15 27 74
12z m468 -82 c-2 -5 3 -8 12 -8 10 0 14 -5 10 -12 -4 -7 1 -4 9 6 13 16 16 17
16 5 0 -11 11 -16 34 -17 19 -1 61 -10 92 -22 55 -19 59 -19 77 -2 19 16 20
16 8 -5 -10 -20 -9 -23 12 -28 13 -4 24 -13 24 -20 0 -8 -5 -11 -10 -8 -6 4
-36 5 -68 4 -32 -1 -68 3 -81 10 -21 11 -22 11 -9 -5 8 -9 10 -16 5 -14 -5 1
-18 -3 -30 -9 -22 -12 -51 -2 -40 15 3 5 -1 13 -10 16 -9 4 -14 9 -11 12 3 3
16 -1 29 -10 12 -9 17 -16 10 -16 -7 0 -10 -5 -6 -11 4 -7 11 -6 21 4 21 21 9
35 -35 43 -20 4 -51 13 -69 20 -34 15 -56 38 -26 28 17 -5 17 -5 1 9 -24 19
-23 22 11 22 16 0 27 -3 24 -7z"/>
</g>
</svg>
